<?xml version="1.0" encoding="UTF-8" standalone="no"?>
<!-- Created with Inkscape (http://www.inkscape.org/) -->

<svg
   version="1.1"
   id="svg1"
   width="399.34167"
   height="149.65353"
   viewBox="0 0 399.34166 149.65354"
   sodipodi:docname="bowen.svg"
   inkscape:version="1.4.2 (ebf0e940d0, 2025-05-08)"
   inkscape:export-filename="bowen.png"
   inkscape:export-xdpi="96"
   inkscape:export-ydpi="96"
   xmlns:inkscape="http://www.inkscape.org/namespaces/inkscape"
   xmlns:sodipodi="http://sodipodi.sourceforge.net/DTD/sodipodi-0.dtd"
   xmlns="http://www.w3.org/2000/svg"
   xmlns:svg="http://www.w3.org/2000/svg">
  <defs
     id="defs1" />
  <sodipodi:namedview
     id="namedview1"
     pagecolor="#ffffff"
     bordercolor="#000000"
     borderopacity="0.25"
     inkscape:showpageshadow="2"
     inkscape:pageopacity="0.0"
     inkscape:pagecheckerboard="0"
     inkscape:deskcolor="#d1d1d1"
     inkscape:zoom="1.2223406"
     inkscape:cx="100.62662"
     inkscape:cy="204.11659"
     inkscape:window-width="1920"
     inkscape:window-height="1056"
     inkscape:window-x="0"
     inkscape:window-y="0"
     inkscape:window-maximized="1"
     inkscape:current-layer="g1"
     showgrid="true">
    <inkscape:page
       x="0"
       y="0"
       inkscape:label="1"
       id="page1"
       width="399.34167"
       height="149.65353"
       margin="0"
       bleed="0" />
    <inkscape:grid
       id="grid47"
       units="px"
       originx="8.2521699"
       originy="16.967986"
       spacingx="9.9999998"
       spacingy="10"
       empcolor="#e54900"
       empopacity="0.30196078"
       color="#0099e5"
       opacity="0.14901961"
       empspacing="6"
       enabled="true"
       visible="true" />
  </sodipodi:namedview>
  <g
     id="g1"
     inkscape:groupmode="layer"
     inkscape:label="1"
     transform="translate(-44.821682,-13.186404)">
    <path
       id="path22"
       d="M 150.95472,68.783981 C 148.52985,65.584898 147.508,78.891 143.602,85.277 c -3.907,6.391 -11.68,15.911 -17.102,19.762 -5.426,3.848 -15.727,10.481 -30.117,10.402 C 88.223,115.398 65.402,103.875 54.957,89.02 46.988,77.684 50.711,62.891 49.051,63.012 c -4.793,0.343 -3.867,16.043 4.359,27.527 10.688,14.914 34.551,26.441 42.211,26.609 32.297,0.723 46.531,-24.453 48.828,-28.589 0.739,-1.336 11.07972,-12.010019 6.50572,-19.775019 z"
       style="fill:#ecdebb;fill-opacity:0.78679;fill-rule:nonzero;stroke:none"
       transform="scale(1.3333333)"
       sodipodi:nodetypes="cccccccccc" />
    <path
       id="path22-5"
       d="m 280.86358,75.615545 c 1.00536,5.257056 9.25818,-10.816745 17.24732,-16.799758 7.99425,-5.986837 22.31918,-13.946223 30.9364,-16.037081 8.61919,-2.091337 24.65213,-5.218623 42.43751,1.979926 10.08539,4.082012 34.71698,21.824421 40.32178,45.379506 4.27678,17.973872 15.04346,-1.153747 23.39088,-14.902543 27.61014,-45.475908 -8.87402,-18.616482 -12.99204,-16.084513 -7.11724,4.376035 -39.53082,-12.138605 -48.93431,-16.1307 -39.64848,-16.832109 -69.70475,7.320907 -74.58952,11.312208 -1.57638,1.288042 -20.07506,9.480798 -17.81802,21.282955 z"
       style="fill:#ecdebb;fill-opacity:0.78679;fill-rule:nonzero;stroke:none;stroke-width:1.33333"
       sodipodi:nodetypes="ssssssssss" />
    <path
       id="path1"
       d="M 155.226,73.602 C 145.205,41.871 121.823,26.004 98.438,26.004 c -23.381,0 -46.741043,15.873881 -56.784,47.598 l -7.110304,22.46033"
       style="fill:none;stroke:#000000;stroke-width:1.01;stroke-linecap:butt;stroke-linejoin:miter;stroke-miterlimit:4;stroke-dasharray:none;stroke-opacity:1"
       transform="scale(1.3274,1.3333333)"
       sodipodi:nodetypes="cssc" />
    <path
       id="path2"
       d="M 95.66,29.031 98.693,26.004 95.66,22.973"
       style="fill:none;stroke:#000000;stroke-width:1.01;stroke-linecap:butt;stroke-linejoin:miter;stroke-miterlimit:4;stroke-dasharray:none;stroke-opacity:1"
       transform="scale(1.3274,1.3333333)" />
    <path
       id="path3"
       d="m 155.226,73.602 c -10.021,30.066 -32.571,45.097 -55.532,45.097 -22.966,0 -47.956146,-14.46038 -58.04,-45.097 L 34.74652,52.615793"
       style="fill:none;stroke:#000000;stroke-width:1.01;stroke-linecap:butt;stroke-linejoin:miter;stroke-miterlimit:4;stroke-dasharray:none;stroke-opacity:1"
       transform="scale(1.3274,1.3333333)"
       sodipodi:nodetypes="cssc" />
    <path
       id="path4"
       d="m -102.468,-115.668 3.029,-3.031 -3.029,-3.028"
       style="fill:none;stroke:#000000;stroke-width:1.01;stroke-linecap:butt;stroke-linejoin:miter;stroke-miterlimit:4;stroke-dasharray:none;stroke-opacity:1"
       transform="scale(-1.3274,-1.3333333)" />
    <path
       id="path5"
       d="m 54.04,100.458 c 0,-1.731 2.331,-0.854 2.872,0 1.469,2.309 -0.645,5.035 -2.872,5.742 -3.982,1.267 -7.811,-1.948 -8.616,-5.743 -1.185,-5.569 3.254,-10.636 8.614,-11.489 7.145,-1.136 13.481,4.567 14.363,11.489 1.109,8.712 -5.873,16.332 -14.361,17.231 -10.28,1.094 -19.19,-7.18 -20.105,-17.23 -1.077,-11.846 8.489,-22.055 20.104,-22.977 13.411,-1.069 24.92,9.795 25.85,22.977 1.06,14.975 -11.105,27.781 -25.847,28.719 -16.543,1.054 -30.65,-12.41 -31.595,-28.721 C 21.399,82.351 36.166,66.94 54.04,65.993"
       style="fill:none;stroke:#000000;stroke-width:0.758808;stroke-linecap:butt;stroke-linejoin:miter;stroke-miterlimit:4;stroke-dasharray:none;stroke-opacity:1"
       transform="matrix(1.3274,-0.63130133,0.628492,1.3333333,0,0)" />
    <path
       id="path6"
       d="M 47.099,69.157 49.316,66.94 47.1,64.723"
       style="fill:none;stroke:#000000;stroke-width:0.738708;stroke-linecap:butt;stroke-linejoin:miter;stroke-miterlimit:4;stroke-dasharray:none;stroke-opacity:1"
       transform="matrix(1.3274,-0.72012667,0.71692133,1.3333333,0,0)" />
    <path
       id="path6-6"
       d="m 45.084179,77.462287 4.192089,2.232398 2.234738,-4.169583"
       style="fill:none;stroke:#000000;stroke-width:1.11693;stroke-linecap:butt;stroke-linejoin:miter;stroke-miterlimit:4;stroke-dasharray:none;stroke-opacity:1" />
    <path
       id="path6-6-2"
       d="m 45.398145,117.99853 2.368294,4.11685 4.106882,-2.34798"
       style="fill:none;stroke:#000000;stroke-width:1.11693;stroke-linecap:butt;stroke-linejoin:miter;stroke-miterlimit:4;stroke-dasharray:none;stroke-opacity:1" />
    <path
       id="path1-5"
       d="m 433.61619,36.394711 c -12.1255,46.507769 -39.62851,-1.301393 -92.96811,-2.890018 -56.62647,-1.686519 -69.87882,43.108587 -77.8768,68.343277 l -8.67298,27.36442"
       style="fill:none;stroke:#000000;stroke-width:1.34367;stroke-linecap:butt;stroke-linejoin:miter;stroke-miterlimit:4;stroke-dasharray:none;stroke-opacity:1"
       sodipodi:nodetypes="cssc" />
    <path
       id="path3-9"
       d="m 413.67509,102.19921 c -13.30187,40.088 -43.23474,60.12933 -73.71318,60.12933 -30.48506,0 -63.65698,-19.28051 -77.04229,-60.12933 l -9.16899,-27.981606"
       style="fill:none;stroke:#000000;stroke-width:1.34367;stroke-linecap:butt;stroke-linejoin:miter;stroke-miterlimit:4;stroke-dasharray:none;stroke-opacity:1"
       sodipodi:nodetypes="cssc" />
    <path
       id="path6-6-22"
       d="m 252.71228,81.525502 4.19209,2.232398 2.23473,-4.169583"
       style="fill:none;stroke:#000000;stroke-width:1.11693;stroke-linecap:butt;stroke-linejoin:miter;stroke-miterlimit:4;stroke-dasharray:none;stroke-opacity:1" />
    <path
       id="path6-6-2-8"
       d="m 253.80794,118.43314 2.45374,4.06651 4.05697,-2.43321"
       style="fill:none;stroke:#000000;stroke-width:1.11693;stroke-linecap:butt;stroke-linejoin:miter;stroke-miterlimit:4;stroke-dasharray:none;stroke-opacity:1"
       sodipodi:nodetypes="ccc" />
    <path
       id="path7"
       d="m 39.828,73.332 c 0.145,-0.906 0.996,-1.523 1.902,-1.379 0.903,0.145 1.52,0.996 1.379,1.906 -0.14,0.911 -0.984,1.532 -1.89,1.395 -0.907,-0.137 -1.531,-0.984 -1.395,-1.895"
       style="fill:#000000;fill-opacity:1;fill-rule:nonzero;stroke:none"
       transform="scale(1.3333333)" />
    <path
       id="path8"
       d="m 98.887,73.527 c 0.148,-0.91 1,-1.523 1.902,-1.379 0.906,0.145 1.523,0.997 1.383,1.903 -0.141,0.91 -0.988,1.535 -1.891,1.398 -0.906,-0.14 -1.531,-0.988 -1.398,-1.898"
       style="fill:#000000;fill-opacity:1;fill-rule:nonzero;stroke:none"
       transform="scale(1.3333333)" />
    <path
       id="path11"
       d="m 152.895,73.332 c 0.148,-0.906 0.996,-1.523 1.902,-1.379 0.902,0.145 1.523,0.996 1.383,1.906 -0.141,0.911 -0.989,1.532 -1.895,1.395 -0.906,-0.137 -1.527,-0.984 -1.394,-1.895"
       style="fill:#000000;fill-opacity:1;fill-rule:nonzero;stroke:none"
       transform="scale(1.3333333)" />
    <path
       id="path20"
       d="m 64.471509,80.508083 c -2.546667,1.885333 -2.916,8.448 -0.968,10.828 1.947999,2.385333 3.598666,1.890667 5.718666,1.932 2.114667,0.04667 4.926667,0.406667 6.650667,-0.166667 1.729333,-0.573333 1.874666,-0.573333 2.797333,-2.692 0.921333,-2.12 3.062666,-6.833333 2.249333,-9.531999 -0.577333,-1.926667 -6.525333,-7.697334 -16.447999,-0.369334 z"
       style="fill:#579e33;fill-opacity:0.333508;fill-rule:nonzero;stroke:none;stroke-width:1.33333" />
    <path
       id="path20-9"
       d="m 269.79564,83.328626 c -2.54667,1.885333 -2.916,8.448 -0.968,10.828 1.948,2.385333 3.59866,1.890667 5.71866,1.932 2.11467,0.04667 4.92667,0.406667 6.65067,-0.166667 1.72933,-0.573333 1.87467,-0.573333 2.79733,-2.692 0.92134,-2.12 3.06267,-6.833333 2.24934,-9.531999 -0.57734,-1.926667 -6.52534,-7.697334 -16.448,-0.369334 z"
       style="fill:#579e33;fill-opacity:0.333508;fill-rule:nonzero;stroke:none;stroke-width:1.33333" />
    <path
       id="path2-6"
       d="m 337.49333,72.993404 4.02601,-4.036 -4.02601,-4.041333"
       style="fill:none;stroke:#000000;stroke-width:1.34367;stroke-linecap:butt;stroke-linejoin:miter;stroke-miterlimit:4;stroke-dasharray:none;stroke-opacity:1"
       sodipodi:nodetypes="ccc" />
    <path
       id="path2-6-1"
       d="m 384.59768,49.325784 5.40652,-1.807655 -1.79187,-5.41575"
       style="fill:none;stroke:#000000;stroke-width:1.34367;stroke-linecap:butt;stroke-linejoin:miter;stroke-miterlimit:4;stroke-dasharray:none;stroke-opacity:1"
       sodipodi:nodetypes="ccc" />
    <path
       id="path4-9"
       d="m 343.64412,158.2872 -4.02069,4.04133 4.02069,4.03733"
       style="fill:none;stroke:#000000;stroke-width:1.34367;stroke-linecap:butt;stroke-linejoin:miter;stroke-miterlimit:4;stroke-dasharray:none;stroke-opacity:1" />
    <path
       id="path5-1"
       d="m 342.49785,103.89168 c -1.08792,-2.308 2.55743,-2.61023 3.81229,-1.81309 3.40114,2.15128 2.30828,7.12051 -0.20349,9.46908 -4.48941,4.20318 -11.59263,2.33376 -15.04631,-2.21804 -5.07304,-6.67723 -2.36528,-16.235578 4.21348,-20.756686 8.7703,-6.025315 20.765,-2.42124 26.28619,6.251284 6.94751,10.915882 2.46871,25.483622 -8.23325,32.040782 -12.9581,7.94844 -29.98538,2.54133 -37.51629,-10.28102 -8.87473,-15.11475 -2.59309,-34.765779 12.24519,-43.327677 17.1299,-9.891716 39.23488,-2.67203 48.75415,14.31686 10.81871,19.297477 2.71936,44.051927 -16.25965,54.609237 -21.29675,11.84895 -59.73163,1.36765 -70.54006,-33.57941 -10.80843,-34.947056 16.75617,-59.032961 47.79211,-59.032961 31.04125,0 62.57101,10.321168 75.87288,52.629171"
       style="fill:none;stroke:#000000;stroke-width:1.11693;stroke-linecap:butt;stroke-linejoin:miter;stroke-miterlimit:4;stroke-dasharray:none;stroke-opacity:1"
       sodipodi:nodetypes="ccccccccccczsc" />
    <path
       id="path7-7"
       d="m 260.7321,101.83921 c 0.19333,-1.208 1.328,-2.030672 2.536,-1.83867 1.204,0.19333 2.02667,1.328 1.83867,2.54133 -0.18667,1.21467 -1.312,2.04267 -2.52,1.86 -1.20934,-0.18266 -2.04134,-1.312 -1.86,-2.52666"
       style="fill:#000000;fill-opacity:1;fill-rule:nonzero;stroke:none;stroke-width:1.33333" />
    <path
       id="path8-0"
       d="m 339.47743,102.09921 c 0.19733,-1.21334 1.33333,-2.03067 2.536,-1.83867 1.208,0.19333 2.03067,1.32933 1.844,2.53733 -0.188,1.21334 -1.31733,2.04667 -2.52133,1.864 -1.208,-0.18666 -2.04134,-1.31733 -1.864,-2.53066"
       style="fill:#000000;fill-opacity:1;fill-rule:nonzero;stroke:none;stroke-width:1.33333" />
    <path
       id="path11-9"
       d="m 411.48809,101.83921 c 0.19734,-1.208 1.328,-2.030672 2.536,-1.83867 1.20267,0.19333 2.03067,1.328 1.844,2.54133 -0.188,1.21467 -1.31866,2.04267 -2.52666,1.86 -1.208,-0.18266 -2.036,-1.312 -1.85867,-2.52666"
       style="fill:#000000;fill-opacity:1;fill-rule:nonzero;stroke:none;stroke-width:1.33333" />
  </g>
</svg>
